<svg width="100" height="100" viewBox="0 0 100 100" fill="none" xmlns="http://www.w3.org/2000/svg">
<circle cx="50" cy="50" r="48.5" fill="white" stroke="black" stroke-width="3"/>
<path d="M40.8248 25.0444C41.3004 26.3501 40.6114 27.782 39.3543 28.3744C30.8713 32.3726 25 41.0002 25 50.9999C25 61.4358 31.395 70.3766 40.4796 74.1211C40.9183 74.3019 40.9193 74.947 40.4736 75.1095C40.212 75.2048 40.0772 75.4941 40.1724 75.7557L40.5565 76.811C41.0121 78.0623 39.8601 79.2725 38.628 78.7675C27.6985 74.287 20 63.5432 20 50.9999C20 38.8224 27.2563 28.3417 37.6803 23.6409C38.9301 23.0773 40.3557 23.7561 40.8248 25.0444ZM60.1757 24.5035C59.8847 23.7047 60.6384 22.9303 61.4244 23.2543C72.326 27.7476 80 38.4767 80 50.9999C80 62.8189 73.1648 73.0404 63.232 77.9299C61.9706 78.5508 60.4911 77.8748 60.0102 76.5537C59.5458 75.278 60.1895 73.8757 61.3975 73.2559C69.4737 69.1118 75 60.7014 75 50.9999C75 40.5916 68.6391 31.6698 59.5929 27.9079C58.686 27.5307 58.6519 26.1331 59.5749 25.7974C60.0976 25.6072 60.366 25.0262 60.1757 24.5035Z" fill="#A4A4A4"/>
<path d="M43.3711 76.2087C43.8076 77.5183 43.1003 78.9339 41.791 79.3708L28.1718 83.9109C26.8711 84.3444 25.4637 83.6487 25.0175 82.3523C24.5654 81.0379 25.2722 79.6073 26.5908 79.1677L34.0322 76.6872C34.1988 76.6317 34.2147 76.4024 34.0576 76.3239C33.9603 76.2753 33.9211 76.1566 33.9697 76.0593L36.0293 71.9401C36.0779 71.8428 36.1966 71.8036 36.2939 71.8523C36.4509 71.9306 36.6248 71.7795 36.5693 71.613L34.0854 64.1607C33.6573 62.8763 34.3297 61.4845 35.602 61.0215C36.9242 60.5404 38.3829 61.245 38.8278 62.5799L43.3711 76.2087ZM37.4336 74.2077C37.1973 73.4991 36.2226 73.4302 35.8886 74.0984L35.6113 74.6521C35.2777 75.32 35.9186 76.0582 36.6269 75.822C36.8375 75.7517 37.0119 75.6006 37.1113 75.4021L37.3877 74.8484C37.4872 74.6494 37.5039 74.4187 37.4336 74.2077Z" fill="#A4A4A4"/>
<path d="M55.1289 24.8308C54.6923 23.5212 55.3996 22.1056 56.709 21.6687L70.3281 17.1286C71.6288 16.6951 73.0362 17.3908 73.4824 18.6872C73.9347 20.0016 73.2278 21.4322 71.9091 21.8718L64.4677 24.3533C64.3012 24.4089 64.2852 24.6381 64.4423 24.7165C64.5394 24.7652 64.5786 24.883 64.5302 24.9802L62.4707 29.0994C62.422 29.1966 62.3033 29.2368 62.206 29.1882C62.049 29.1097 61.8751 29.26 61.9306 29.4265L64.415 36.8789C64.8433 38.1637 64.1706 39.5559 62.8978 40.0187C61.5755 40.4995 60.1172 39.7947 59.6722 38.46L55.1289 24.8308ZM61.0664 26.8318C61.3025 27.5403 62.2772 27.6099 62.6113 26.9421L62.8886 26.3884C63.2226 25.7204 62.5815 24.9813 61.873 25.2175C61.6624 25.2878 61.488 25.4398 61.3886 25.6384L61.1123 26.1921C61.0128 26.3909 60.9962 26.6209 61.0664 26.8318Z" fill="#A4A4A4"/>
<path d="M41.6026 60.3995C40.0756 60.3936 38.7617 60.0178 37.6609 59.272C36.5659 58.5263 35.7225 57.4461 35.1307 56.0316C34.5447 54.6171 34.2547 52.9155 34.2607 50.9268C34.2607 48.9441 34.5536 47.2544 35.1396 45.8576C35.7314 44.4608 36.5748 43.3984 37.6697 42.6705C38.7706 41.9366 40.0816 41.5696 41.6026 41.5696C43.1237 41.5696 44.4317 41.9366 45.5266 42.6705C46.6275 43.4044 47.4738 44.4697 48.0657 45.8665C48.6576 47.2573 48.9505 48.9441 48.9446 50.9268C48.9446 52.9214 48.6487 54.6259 48.0568 56.0405C47.4709 57.455 46.6304 58.5352 45.5355 59.2809C44.4406 60.0266 43.1296 60.3995 41.6026 60.3995ZM41.6026 57.2124C42.6443 57.2124 43.4759 56.6886 44.0973 55.641C44.7188 54.5934 45.0265 53.022 45.0206 50.9268C45.0206 49.5478 44.8786 48.3996 44.5945 47.4822C44.3163 46.5649 43.9197 45.8754 43.4048 45.4137C42.8958 44.9521 42.2951 44.7212 41.6026 44.7212C40.5669 44.7212 39.7383 45.2391 39.1168 46.2749C38.4954 47.3106 38.1817 48.8613 38.1758 50.9268C38.1758 52.3236 38.3149 53.4896 38.593 54.4247C38.8771 55.3539 39.2766 56.0523 39.7915 56.5199C40.3065 56.9815 40.9102 57.2124 41.6026 57.2124ZM58.4062 60.2486C57.0804 60.2486 55.8997 60.0207 54.8639 59.565C53.8341 59.1033 53.0203 58.4701 52.4225 57.6651C51.8306 56.8543 51.5258 55.9192 51.5081 54.8597H55.3788C55.4025 55.3036 55.5475 55.6942 55.8138 56.0316C56.0861 56.363 56.4471 56.6205 56.8969 56.804C57.3467 56.9875 57.8528 57.0792 58.415 57.0792C59.001 57.0792 59.5189 56.9756 59.9687 56.7685C60.4185 56.5613 60.7706 56.2743 61.0251 55.9073C61.2796 55.5404 61.4069 55.1172 61.4069 54.6378C61.4069 54.1525 61.2707 53.7234 60.9985 53.3505C60.7322 52.9717 60.3474 52.6758 59.8444 52.4627C59.3472 52.2496 58.7554 52.1431 58.0688 52.1431H56.3731V49.32H58.0688C58.6488 49.32 59.1608 49.2193 59.6047 49.0181C60.0545 48.8169 60.4037 48.5387 60.6523 48.1836C60.9008 47.8226 61.0251 47.4023 61.0251 46.9229C61.0251 46.4672 60.9156 46.0677 60.6966 45.7244C60.4836 45.3752 60.1817 45.103 59.7911 44.9077C59.4064 44.7124 58.9566 44.6147 58.4417 44.6147C57.9208 44.6147 57.4444 44.7094 57.0123 44.8988C56.5803 45.0823 56.234 45.3456 55.9736 45.6889C55.7132 46.0322 55.5741 46.4347 55.5564 46.8963H51.8721C51.8898 45.8487 52.1887 44.9254 52.7687 44.1264C53.3488 43.3274 54.13 42.703 55.1125 42.2532C56.1009 41.7975 57.2165 41.5696 58.4594 41.5696C59.7142 41.5696 60.8121 41.7975 61.7531 42.2532C62.6942 42.7089 63.4251 43.3245 63.9459 44.0998C64.4727 44.8692 64.7331 45.7333 64.7272 46.6921C64.7331 47.7101 64.4165 48.5594 63.7773 49.2401C63.144 49.9207 62.3183 50.3527 61.3003 50.5362V50.6783C62.6379 50.8499 63.6559 51.3145 64.3543 52.0721C65.0586 52.8237 65.4078 53.7648 65.4019 54.8952C65.4078 55.931 65.1089 56.8513 64.5052 57.6562C63.9075 58.4612 63.0818 59.0945 62.0283 59.5561C60.9748 60.0178 59.7674 60.2486 58.4062 60.2486Z" fill="#A4A4A4"/>
</svg>
