<svg width="100" height="100" viewBox="0 0 100 100" fill="none" xmlns="http://www.w3.org/2000/svg">
<circle cx="50" cy="50" r="48.5" fill="white" stroke="black" stroke-width="3"/>
<path d="M40.8248 25.0444C41.3004 26.3501 40.6114 27.782 39.3543 28.3744C30.8713 32.3726 25 41.0002 25 50.9999C25 61.4358 31.395 70.3766 40.4796 74.1211C40.9183 74.3019 40.9193 74.947 40.4736 75.1095C40.212 75.2048 40.0772 75.4941 40.1724 75.7557L40.5565 76.811C41.0121 78.0623 39.8601 79.2725 38.628 78.7675C27.6985 74.287 20 63.5432 20 50.9999C20 38.8224 27.2563 28.3417 37.6803 23.6409C38.9301 23.0773 40.3557 23.7561 40.8248 25.0444ZM60.1757 24.5035C59.8847 23.7047 60.6384 22.9303 61.4244 23.2543C72.326 27.7476 80 38.4767 80 50.9999C80 62.8189 73.1648 73.0404 63.232 77.9299C61.9706 78.5508 60.4911 77.8748 60.0102 76.5537C59.5458 75.278 60.1895 73.8757 61.3975 73.2559C69.4737 69.1118 75 60.7014 75 50.9999C75 40.5916 68.6391 31.6698 59.5929 27.9079C58.686 27.5307 58.6519 26.1331 59.5749 25.7974C60.0976 25.6072 60.366 25.0262 60.1757 24.5035Z" fill="#D00000"/>
<path d="M43.3711 76.2092C43.8076 77.5189 43.1004 78.9345 41.791 79.3714L28.1719 83.9114C26.8712 84.3449 25.4638 83.6493 25.0176 82.3528C24.5653 81.0384 25.2722 79.6078 26.5909 79.1682L34.0323 76.6868C34.1988 76.6312 34.2148 76.4019 34.0577 76.3235C33.9605 76.2748 33.9211 76.1561 33.9698 76.0589L36.0293 71.9407C36.078 71.8434 36.1967 71.8033 36.294 71.8518C36.4509 71.9303 36.6248 71.78 36.5694 71.6135L34.085 64.1611C33.6567 62.8763 34.3294 61.4841 35.6022 61.0213C36.9245 60.5406 38.3828 61.2453 38.8278 62.5801L43.3711 76.2092ZM37.4336 74.2083C37.1975 73.4997 36.2228 73.4301 35.8887 74.0979L35.6114 74.6516C35.2774 75.3196 35.9185 76.0588 36.627 75.8225C36.8376 75.7522 37.012 75.6002 37.1114 75.4016L37.3877 74.8479C37.4872 74.6491 37.5038 74.4192 37.4336 74.2083Z" fill="#D00000"/>
<path d="M55.1289 24.8313C54.6924 23.5217 55.3996 22.1061 56.709 21.6692L70.3282 17.1292C71.6289 16.6956 73.0363 17.3913 73.4824 18.6878C73.9346 20.0021 73.2278 21.4328 71.9092 21.8724L64.4678 24.3528C64.3012 24.4084 64.2853 24.6377 64.4424 24.7161C64.5397 24.7647 64.5789 24.8834 64.5303 24.9808L62.4707 29.0999C62.4221 29.1972 62.3034 29.2364 62.2061 29.1878C62.0491 29.1094 61.8752 29.2606 61.9307 29.427L64.4146 36.8794C64.8426 38.1638 64.1703 39.5555 62.898 40.0185C61.5758 40.4996 60.1171 39.795 59.6721 38.4601L55.1289 24.8313ZM61.0664 26.8323C61.3026 27.5408 62.2772 27.6103 62.6114 26.9427L62.8887 26.388C63.2223 25.7201 62.5814 24.9818 61.8731 25.2181C61.6625 25.2884 61.4881 25.4395 61.3887 25.638L61.1123 26.1917C61.0128 26.3906 60.9961 26.6213 61.0664 26.8323Z" fill="#D00000"/>
<path d="M41.6026 60.3995C40.0756 60.3936 38.7617 60.0178 37.6609 59.272C36.5659 58.5263 35.7225 57.4461 35.1307 56.0316C34.5447 54.6171 34.2547 52.9155 34.2607 50.9268C34.2607 48.9441 34.5536 47.2544 35.1396 45.8576C35.7314 44.4608 36.5748 43.3984 37.6697 42.6705C38.7706 41.9366 40.0816 41.5696 41.6026 41.5696C43.1237 41.5696 44.4317 41.9366 45.5266 42.6705C46.6275 43.4044 47.4738 44.4697 48.0657 45.8665C48.6576 47.2573 48.9505 48.9441 48.9446 50.9268C48.9446 52.9214 48.6487 54.6259 48.0568 56.0405C47.4709 57.455 46.6304 58.5352 45.5355 59.2809C44.4406 60.0266 43.1296 60.3995 41.6026 60.3995ZM41.6026 57.2124C42.6443 57.2124 43.4759 56.6886 44.0973 55.641C44.7188 54.5934 45.0265 53.022 45.0206 50.9268C45.0206 49.5478 44.8786 48.3996 44.5945 47.4822C44.3163 46.5649 43.9197 45.8754 43.4048 45.4137C42.8958 44.9521 42.2951 44.7212 41.6026 44.7212C40.5669 44.7212 39.7383 45.2391 39.1168 46.2749C38.4954 47.3106 38.1817 48.8613 38.1758 50.9268C38.1758 52.3236 38.3149 53.4896 38.593 54.4247C38.8771 55.3539 39.2766 56.0523 39.7915 56.5199C40.3065 56.9815 40.9102 57.2124 41.6026 57.2124ZM58.4062 60.2486C57.0804 60.2486 55.8997 60.0207 54.8639 59.565C53.8341 59.1033 53.0203 58.4701 52.4225 57.6651C51.8306 56.8543 51.5258 55.9192 51.5081 54.8597H55.3788C55.4025 55.3036 55.5475 55.6942 55.8138 56.0316C56.0861 56.363 56.4471 56.6205 56.8969 56.804C57.3467 56.9875 57.8528 57.0792 58.415 57.0792C59.001 57.0792 59.5189 56.9756 59.9687 56.7685C60.4185 56.5613 60.7706 56.2743 61.0251 55.9073C61.2796 55.5404 61.4069 55.1172 61.4069 54.6378C61.4069 54.1525 61.2707 53.7234 60.9985 53.3505C60.7322 52.9717 60.3474 52.6758 59.8444 52.4627C59.3472 52.2496 58.7554 52.1431 58.0688 52.1431H56.3731V49.32H58.0688C58.6488 49.32 59.1608 49.2193 59.6047 49.0181C60.0545 48.8169 60.4037 48.5387 60.6523 48.1836C60.9008 47.8226 61.0251 47.4023 61.0251 46.9229C61.0251 46.4672 60.9156 46.0677 60.6966 45.7244C60.4836 45.3752 60.1817 45.103 59.7911 44.9077C59.4064 44.7124 58.9566 44.6147 58.4417 44.6147C57.9208 44.6147 57.4444 44.7094 57.0123 44.8988C56.5803 45.0823 56.234 45.3456 55.9736 45.6889C55.7132 46.0322 55.5741 46.4347 55.5564 46.8963H51.8721C51.8898 45.8487 52.1887 44.9254 52.7687 44.1264C53.3488 43.3274 54.13 42.703 55.1125 42.2532C56.1009 41.7975 57.2165 41.5696 58.4594 41.5696C59.7142 41.5696 60.8121 41.7975 61.7531 42.2532C62.6942 42.7089 63.4251 43.3245 63.9459 44.0998C64.4727 44.8692 64.7331 45.7333 64.7272 46.6921C64.7331 47.7101 64.4165 48.5594 63.7773 49.2401C63.144 49.9207 62.3183 50.3527 61.3003 50.5362V50.6783C62.6379 50.8499 63.6559 51.3145 64.3543 52.0721C65.0586 52.8237 65.4078 53.7648 65.4019 54.8952C65.4078 55.931 65.1089 56.8513 64.5052 57.6562C63.9075 58.4612 63.0818 59.0945 62.0283 59.5561C60.9748 60.0178 59.7674 60.2486 58.4062 60.2486Z" fill="#D00000"/>
</svg>
