<svg width="100" height="100" viewBox="0 0 100 100" fill="none" xmlns="http://www.w3.org/2000/svg">
<path d="M40.8248 25.0445C41.3004 26.3502 40.6114 27.7821 39.3543 28.3745C30.8713 32.3727 25 41.0003 25 51C25 61.436 31.395 70.3767 40.4796 74.1213C40.9183 74.3021 40.9193 74.9471 40.4736 75.1096C40.212 75.205 40.0772 75.4942 40.1724 75.7559L40.5565 76.8111C41.0121 78.0624 39.8601 79.2727 38.628 78.7676C27.6985 74.2871 20 63.5433 20 51C20 38.8226 27.2563 28.3418 37.6803 23.641C38.9301 23.0774 40.3557 23.7562 40.8248 25.0445ZM60.1757 24.5036C59.8847 23.7048 60.6384 22.9304 61.4244 23.2544C72.326 27.7477 80 38.4768 80 51C80 62.8191 73.1648 73.0405 63.232 77.93C61.9706 78.5509 60.4911 77.875 60.0102 76.5539C59.5458 75.2781 60.1895 73.8758 61.3975 73.256C69.4737 69.1119 75 60.7015 75 51C75 40.5917 68.6391 31.67 59.5929 27.908C58.686 27.5309 58.6519 26.1332 59.5749 25.7975C60.0976 25.6073 60.366 25.0263 60.1757 24.5036Z" fill="black"/>
<path d="M43.3711 76.208C43.8076 77.5176 43.1004 78.9332 41.791 79.3701L28.1719 83.9102C26.8711 84.3437 25.4638 83.648 25.0176 82.3516C24.5654 81.0373 25.2722 79.6066 26.5908 79.167L34.0322 76.6865C34.1989 76.631 34.2148 76.4017 34.0576 76.3232C33.9603 76.2746 33.9211 76.1559 33.9697 76.0586L36.0293 71.9395C36.078 71.8421 36.1966 71.8029 36.2939 71.8516C36.4509 71.9299 36.6248 71.7788 36.5693 71.6123L34.0855 64.16C33.6574 62.8756 34.3298 61.4838 35.602 61.0208C36.9243 60.5397 38.3829 61.2444 38.8279 62.5792L43.3711 76.208ZM37.4336 74.207C37.1974 73.4984 36.2227 73.4295 35.8887 74.0977L35.6113 74.6514C35.2777 75.3193 35.9186 76.0575 36.627 75.8213C36.8375 75.751 37.0119 75.5999 37.1113 75.4014L37.3877 74.8477C37.4872 74.6487 37.5039 74.4181 37.4336 74.207Z" fill="black"/>
<path d="M55.1289 24.8311C54.6924 23.5214 55.3996 22.1058 56.709 21.6689L70.3281 17.1289C71.6289 16.6953 73.0362 17.391 73.4824 18.6875C73.9348 20.0019 73.2279 21.4325 71.9092 21.8721L64.4678 24.3535C64.3013 24.4091 64.2853 24.6384 64.4424 24.7168C64.5394 24.7655 64.5787 24.8833 64.5303 24.9805L62.4707 29.0996C62.4221 29.1969 62.3033 29.237 62.2061 29.1885C62.0491 29.11 61.8752 29.2603 61.9307 29.4268L64.4151 36.8792C64.8434 38.164 64.1706 39.5562 62.8978 40.019C61.5756 40.4997 60.1172 39.795 59.6722 38.4602L55.1289 24.8311ZM61.0664 26.832C61.3026 27.5405 62.2772 27.6102 62.6113 26.9424L62.8887 26.3887C63.2226 25.7207 62.5815 24.9815 61.873 25.2178C61.6624 25.2881 61.4881 25.4401 61.3887 25.6387L61.1123 26.1924C61.0128 26.3912 60.9962 26.6211 61.0664 26.832Z" fill="black"/>
<path d="M41.6026 60.3995C40.0756 60.3936 38.7617 60.0178 37.6609 59.272C36.5659 58.5263 35.7225 57.4461 35.1307 56.0316C34.5447 54.6171 34.2547 52.9155 34.2607 50.9268C34.2607 48.9441 34.5536 47.2544 35.1396 45.8576C35.7314 44.4608 36.5748 43.3984 37.6697 42.6705C38.7706 41.9366 40.0816 41.5696 41.6026 41.5696C43.1237 41.5696 44.4317 41.9366 45.5266 42.6705C46.6275 43.4044 47.4738 44.4697 48.0657 45.8665C48.6576 47.2573 48.9505 48.9441 48.9446 50.9268C48.9446 52.9214 48.6487 54.6259 48.0568 56.0405C47.4709 57.455 46.6304 58.5352 45.5355 59.2809C44.4406 60.0266 43.1296 60.3995 41.6026 60.3995ZM41.6026 57.2124C42.6443 57.2124 43.4759 56.6886 44.0973 55.641C44.7188 54.5934 45.0265 53.022 45.0206 50.9268C45.0206 49.5478 44.8786 48.3996 44.5945 47.4822C44.3163 46.5649 43.9197 45.8754 43.4048 45.4137C42.8958 44.9521 42.2951 44.7212 41.6026 44.7212C40.5669 44.7212 39.7383 45.2391 39.1168 46.2749C38.4954 47.3106 38.1817 48.8613 38.1758 50.9268C38.1758 52.3236 38.3149 53.4896 38.593 54.4247C38.8771 55.3539 39.2766 56.0523 39.7915 56.5199C40.3065 56.9815 40.9102 57.2124 41.6026 57.2124ZM58.4062 60.2486C57.0804 60.2486 55.8997 60.0207 54.8639 59.565C53.8341 59.1033 53.0203 58.4701 52.4225 57.6651C51.8306 56.8543 51.5258 55.9192 51.5081 54.8597H55.3788C55.4025 55.3036 55.5475 55.6942 55.8138 56.0316C56.0861 56.363 56.4471 56.6205 56.8969 56.804C57.3467 56.9875 57.8528 57.0792 58.415 57.0792C59.001 57.0792 59.5189 56.9756 59.9687 56.7685C60.4185 56.5613 60.7706 56.2743 61.0251 55.9073C61.2796 55.5404 61.4069 55.1172 61.4069 54.6378C61.4069 54.1525 61.2707 53.7234 60.9985 53.3505C60.7322 52.9717 60.3474 52.6758 59.8444 52.4627C59.3472 52.2496 58.7554 52.1431 58.0688 52.1431H56.3731V49.32H58.0688C58.6488 49.32 59.1608 49.2193 59.6047 49.0181C60.0545 48.8169 60.4037 48.5387 60.6523 48.1836C60.9008 47.8226 61.0251 47.4023 61.0251 46.9229C61.0251 46.4672 60.9156 46.0677 60.6966 45.7244C60.4836 45.3752 60.1817 45.103 59.7911 44.9077C59.4064 44.7124 58.9566 44.6147 58.4417 44.6147C57.9208 44.6147 57.4444 44.7094 57.0123 44.8988C56.5803 45.0823 56.234 45.3456 55.9736 45.6889C55.7132 46.0322 55.5741 46.4347 55.5564 46.8963H51.8721C51.8898 45.8487 52.1887 44.9254 52.7687 44.1264C53.3488 43.3274 54.13 42.703 55.1125 42.2532C56.1009 41.7975 57.2165 41.5696 58.4594 41.5696C59.7142 41.5696 60.8121 41.7975 61.7531 42.2532C62.6942 42.7089 63.4251 43.3245 63.9459 44.0998C64.4727 44.8692 64.7331 45.7333 64.7272 46.6921C64.7331 47.7101 64.4165 48.5594 63.7773 49.2401C63.144 49.9207 62.3183 50.3527 61.3003 50.5362V50.6783C62.6379 50.8499 63.6559 51.3145 64.3543 52.0721C65.0586 52.8237 65.4078 53.7648 65.4019 54.8952C65.4078 55.931 65.1089 56.8513 64.5052 57.6562C63.9075 58.4612 63.0818 59.0945 62.0283 59.5561C60.9748 60.0178 59.7674 60.2486 58.4062 60.2486Z" fill="black"/>
</svg>
