<svg width="100" height="100" viewBox="0 0 100 100" fill="none" xmlns="http://www.w3.org/2000/svg">
<circle cx="50" cy="50" r="50" fill="white"/>
<path d="M15.5858 48.5858C14.8047 49.3668 14.8047 50.6332 15.5858 51.4142L28.3137 64.1421C29.0948 64.9232 30.3611 64.9232 31.1421 64.1421C31.9232 63.3611 31.9232 62.0948 31.1421 61.3137L19.8284 50L31.1421 38.6863C31.9232 37.9052 31.9232 36.6389 31.1421 35.8579C30.3611 35.0768 29.0948 35.0768 28.3137 35.8579L15.5858 48.5858ZM84.4142 51.4142C85.1953 50.6332 85.1953 49.3668 84.4142 48.5858L71.6863 35.8579C70.9052 35.0768 69.6389 35.0768 68.8579 35.8579C68.0768 36.6389 68.0768 37.9052 68.8579 38.6863L80.1716 50L68.8579 61.3137C68.0768 62.0948 68.0768 63.3611 68.8579 64.1421C69.6389 64.9232 70.9052 64.9232 71.6863 64.1421L84.4142 51.4142ZM17 50V52H83V50V48H17V50Z" fill="#D00000"/>
<path d="M51.4142 15.5858C50.6332 14.8047 49.3668 14.8047 48.5858 15.5858L35.8579 28.3137C35.0768 29.0948 35.0768 30.3611 35.8579 31.1421C36.6389 31.9232 37.9052 31.9232 38.6863 31.1421L50 19.8284L61.3137 31.1421C62.0948 31.9232 63.3611 31.9232 64.1421 31.1421C64.9232 30.3611 64.9232 29.0948 64.1421 28.3137L51.4142 15.5858ZM48.5858 84.4142C49.3668 85.1953 50.6332 85.1953 51.4142 84.4142L64.1421 71.6863C64.9232 70.9052 64.9232 69.6389 64.1421 68.8579C63.3611 68.0768 62.0948 68.0768 61.3137 68.8579L50 80.1716L38.6863 68.8579C37.9052 68.0768 36.6389 68.0768 35.8579 68.8579C35.0768 69.6389 35.0768 70.9052 35.8579 71.6863L48.5858 84.4142ZM50 17H48V83H50H52V17H50Z" fill="#D00000"/>
</svg>
