<svg width="100" height="100" viewBox="0 0 100 100" fill="none" xmlns="http://www.w3.org/2000/svg">
<circle cx="50" cy="50" r="50" fill="white"/>
<path d="M29.2929 27.2929C28.9024 27.6834 28.9024 28.3166 29.2929 28.7071L35.6569 35.0711C36.0474 35.4616 36.6805 35.4616 37.0711 35.0711C37.4616 34.6805 37.4616 34.0474 37.0711 33.6569L31.4142 28L37.0711 22.3431C37.4616 21.9526 37.4616 21.3195 37.0711 20.9289C36.6805 20.5384 36.0474 20.5384 35.6569 20.9289L29.2929 27.2929ZM70.7071 28.7071C71.0976 28.3166 71.0976 27.6834 70.7071 27.2929L64.3431 20.9289C63.9526 20.5384 63.3195 20.5384 62.9289 20.9289C62.5384 21.3195 62.5384 21.9526 62.9289 22.3431L68.5858 28L62.9289 33.6569C62.5384 34.0474 62.5384 34.6805 62.9289 35.0711C63.3195 35.4616 63.9526 35.4616 64.3431 35.0711L70.7071 28.7071ZM30 28V29H70V28V27H30V28Z" fill="black"/>
<path d="M50.7071 7.29289C50.3166 6.90237 49.6834 6.90237 49.2929 7.29289L42.9289 13.6569C42.5384 14.0474 42.5384 14.6805 42.9289 15.0711C43.3195 15.4616 43.9526 15.4616 44.3431 15.0711L50 9.41421L55.6569 15.0711C56.0474 15.4616 56.6805 15.4616 57.0711 15.0711C57.4616 14.6805 57.4616 14.0474 57.0711 13.6569L50.7071 7.29289ZM49.2929 48.7071C49.6834 49.0976 50.3166 49.0976 50.7071 48.7071L57.0711 42.3431C57.4616 41.9526 57.4616 41.3195 57.0711 40.9289C56.6805 40.5384 56.0474 40.5384 55.6569 40.9289L50 46.5858L44.3431 40.9289C43.9526 40.5384 43.3195 40.5384 42.9289 40.9289C42.5384 41.3195 42.5384 41.9526 42.9289 42.3431L49.2929 48.7071ZM50 8H49V48H50H51V8H50Z" fill="black"/>
<ellipse cx="32.8555" cy="51" rx="9.5" ry="10" fill="#4D4D4D"/>
<path d="M32.9043 57.3232C40.889 57.3236 47.7573 65.8177 50.8076 78H15C18.0503 65.8174 24.9194 57.3232 32.9043 57.3232Z" fill="#4D4D4D"/>
<ellipse cx="68.8555" cy="51" rx="9.5" ry="10" fill="#4D4D4D"/>
<path d="M68.9043 57.3232C76.889 57.3236 83.7573 65.8177 86.8076 78H51C54.0503 65.8174 60.9194 57.3232 68.9043 57.3232Z" fill="#4D4D4D"/>
<ellipse cx="49.8555" cy="63" rx="9.5" ry="10" fill="black"/>
<path d="M49.9043 69.3232C57.889 69.3236 64.7573 77.8177 67.8076 90H32C35.0503 77.8174 41.9194 69.3232 49.9043 69.3232Z" fill="black"/>
</svg>
