<svg width="100" height="100" viewBox="0 0 100 100" fill="none" xmlns="http://www.w3.org/2000/svg">
<circle cx="50" cy="50" r="50" fill="white"/>
<path d="M50 18C66.5685 18 80 31.4315 80 48C80 59.9144 73.0536 70.2044 62.9905 75.0461C61.7317 75.6518 60.2662 74.9747 59.7884 73.6621C59.321 72.3781 59.9768 70.9677 61.1981 70.3548C69.3823 66.2476 75 57.7809 75 48C75 34.1929 63.8071 23 50 23C36.1929 23 25 34.1929 25 48C25 58.5196 31.4979 67.5197 40.6985 71.2099C41.3732 71.4805 41.3919 72.493 40.7088 72.7418C40.3173 72.8844 40.1155 73.3174 40.258 73.7089L40.4541 74.2474C40.8278 75.274 39.8755 76.2673 38.8612 75.8614C27.8083 71.439 20 60.6323 20 48C20 31.4315 33.4315 18 50 18Z" fill="#009A03"/>
<path d="M43.3721 73.21C43.8081 74.5194 43.1002 75.9343 41.791 76.3711L28.1709 80.9111C26.8703 81.3445 25.4638 80.6497 25.0176 79.3535C24.5653 78.0393 25.2715 76.6087 26.5898 76.1689L34.0322 73.6875C34.1987 73.632 34.2156 73.4027 34.0586 73.3242C33.9614 73.2756 33.9223 73.1578 33.9707 73.0605L36.0293 68.9404C36.078 68.843 36.1965 68.8031 36.2939 68.8516C36.4512 68.9301 36.6249 68.7791 36.5693 68.6123L34.0851 61.1611C33.6567 59.8762 34.3294 58.4837 35.6024 58.0207C36.925 57.5396 38.3839 58.2446 38.8289 59.5797L43.3721 73.21ZM37.4346 71.208C37.1983 70.4996 36.2238 70.4299 35.8896 71.0977L35.6123 71.6523C35.2782 72.3204 35.9183 73.0585 36.627 72.8223C36.8379 72.7519 37.0129 72.6012 37.1123 72.4023L37.3887 71.8477C37.4881 71.6489 37.5048 71.4189 37.4346 71.208Z" fill="#009A03"/>
</svg>
