<svg width="100" height="100" viewBox="0 0 100 100" fill="none" xmlns="http://www.w3.org/2000/svg">
<path d="M50 21C66.5685 21 80 34.4315 80 51C80 62.9144 73.0536 73.2044 62.9905 78.0461C61.7317 78.6518 60.2662 77.9747 59.7884 76.6621C59.321 75.3781 59.9768 73.9677 61.1981 73.3548C69.3823 69.2476 75 60.7809 75 51C75 37.1929 63.8071 26 50 26C36.1929 26 25 37.1929 25 51C25 61.5196 31.4979 70.5197 40.6985 74.2099C41.3732 74.4805 41.3919 75.493 40.7088 75.7418C40.3173 75.8844 40.1155 76.3174 40.258 76.7089L40.4541 77.2474C40.8278 78.274 39.8755 79.2673 38.8612 78.8614C27.8083 74.439 20 63.6323 20 51C20 34.4315 33.4315 21 50 21Z" fill="#A4A4A4"/>
<path d="M43.3711 76.209C43.8075 77.5186 43.1004 78.9342 41.791 79.3711L28.1709 83.9102C26.8703 84.3435 25.4638 83.6488 25.0176 82.3525C24.5652 81.0382 25.2721 79.6076 26.5908 79.168L34.0322 76.6865C34.1988 76.6309 34.2147 76.4017 34.0576 76.3232C33.9604 76.2745 33.9211 76.1559 33.9697 76.0586L36.0293 71.9395C36.078 71.8423 36.1967 71.803 36.2939 71.8516C36.4509 71.93 36.6246 71.7797 36.5693 71.6133L34.0847 64.1603C33.6565 62.8757 34.3289 61.4836 35.6013 61.0205C36.9239 60.539 38.383 61.2438 38.8281 62.5791L43.3711 76.209ZM37.4336 74.207C37.1972 73.4988 36.2227 73.4298 35.8887 74.0977L35.6113 74.6514C35.2775 75.3193 35.9177 76.0572 36.626 75.8213C36.8367 75.751 37.0119 75.6001 37.1113 75.4014L37.3877 74.8477C37.4872 74.6487 37.5039 74.4181 37.4336 74.207Z" fill="#A4A4A4"/>
</svg>
