<svg width="100" height="100" viewBox="0 0 100 100" fill="none" xmlns="http://www.w3.org/2000/svg">
<path d="M50 22C66.5685 22 80 35.4315 80 52C80 63.9144 73.0536 74.2044 62.9905 79.0461C61.7317 79.6518 60.2662 78.9747 59.7884 77.6621C59.321 76.3781 59.9768 74.9677 61.1981 74.3548C69.3823 70.2476 75 61.7809 75 52C75 38.1929 63.8071 27 50 27C36.1929 27 25 38.1929 25 52C25 62.5196 31.4979 71.5197 40.6985 75.2099C41.3732 75.4805 41.3919 76.493 40.7088 76.7418C40.3173 76.8844 40.1155 77.3174 40.258 77.7089L40.4541 78.2474C40.8278 79.274 39.8755 80.2673 38.8612 79.8614C27.8083 75.439 20 64.6323 20 52C20 35.4315 33.4315 22 50 22Z" fill="black"/>
<path d="M43.3711 77.209C43.8076 78.5186 43.1004 79.9342 41.791 80.3711L28.1719 84.9111C26.8711 85.3447 25.4638 84.649 25.0176 83.3525C24.5653 82.0382 25.2722 80.6076 26.5908 80.168L34.0322 77.6865C34.1987 77.6309 34.2147 77.4017 34.0576 77.3232C33.9606 77.2745 33.9213 77.1568 33.9697 77.0596L36.0293 72.9404C36.0779 72.8432 36.1967 72.8031 36.2939 72.8516C36.4509 72.9301 36.6248 72.7798 36.5693 72.6133L34.0849 65.1609C33.6566 63.8761 34.3294 62.4839 35.6022 62.0211C36.9244 61.5403 38.3828 62.2451 38.8278 63.5798L43.3711 77.209ZM37.4336 75.208C37.1974 74.4995 36.2228 74.4299 35.8887 75.0977L35.6113 75.6523C35.2779 76.3202 35.9187 77.0585 36.627 76.8223C36.8376 76.7519 37.0119 76.6 37.1113 76.4014L37.3877 75.8477C37.4871 75.6488 37.5038 75.4189 37.4336 75.208Z" fill="black"/>
</svg>
