<svg width="100" height="100" viewBox="0 0 100 100" fill="none" xmlns="http://www.w3.org/2000/svg">
<path d="M50 21C66.5685 21 80 34.4315 80 51C80 62.9144 73.0536 73.2044 62.9905 78.0461C61.7317 78.6518 60.2662 77.9747 59.7884 76.6621C59.321 75.3781 59.9768 73.9677 61.1981 73.3548C69.3823 69.2476 75 60.7809 75 51C75 37.1929 63.8071 26 50 26C36.1929 26 25 37.1929 25 51C25 61.5196 31.4979 70.5197 40.6985 74.2099C41.3732 74.4805 41.3919 75.493 40.7088 75.7418C40.3173 75.8844 40.1155 76.3174 40.258 76.7089L40.4541 77.2474C40.8278 78.274 39.8755 79.2673 38.8612 78.8614C27.8083 74.439 20 63.6323 20 51C20 34.4315 33.4315 21 50 21Z" fill="#D00000"/>
<path d="M43.3711 76.209C43.8073 77.5185 43.1004 78.9343 41.791 79.3711L28.1719 83.9102C26.8711 84.3437 25.4638 83.648 25.0176 82.3516C24.5655 81.0373 25.2722 79.6066 26.5908 79.167L34.0322 76.6865C34.1989 76.631 34.2148 76.4017 34.0576 76.3232C33.9603 76.2746 33.9211 76.1559 33.9697 76.0586L36.0293 71.9395C36.078 71.8421 36.1966 71.8029 36.2939 71.8516C36.4509 71.93 36.6248 71.7788 36.5693 71.6123L34.0849 64.1606C33.6566 62.8759 34.3291 61.4837 35.6018 61.0208C36.9242 60.5397 38.3829 61.2444 38.8279 62.5794L43.3711 76.209ZM37.4336 74.207C37.1974 73.4984 36.2227 73.4295 35.8887 74.0977L35.6113 74.6514C35.2777 75.3193 35.9186 76.0575 36.627 75.8213C36.8375 75.751 37.012 75.5999 37.1113 75.4014L37.3877 74.8477C37.4872 74.6487 37.5039 74.4181 37.4336 74.207Z" fill="#D00000"/>
</svg>
