<svg width="100" height="100" viewBox="0 0 100 100" fill="none" xmlns="http://www.w3.org/2000/svg">
<circle cx="50" cy="50" r="50" fill="white"/>
<path d="M50 19C66.5685 19 80 32.4315 80 49C80 60.9144 73.0536 71.2044 62.9905 76.0461C61.7317 76.6518 60.2662 75.9747 59.7884 74.6621C59.321 73.3781 59.9768 71.9677 61.1981 71.3548C69.3823 67.2476 75 58.7809 75 49C75 35.1929 63.8071 24 50 24C36.1929 24 25 35.1929 25 49C25 59.5196 31.4979 68.5197 40.6985 72.2099C41.3732 72.4805 41.3919 73.493 40.7088 73.7418C40.3173 73.8844 40.1155 74.3174 40.258 74.7089L40.4541 75.2474C40.8278 76.274 39.8755 77.2673 38.8612 76.8614C27.8083 72.439 20 61.6323 20 49C20 32.4315 33.4315 19 50 19Z" fill="#D00000"/>
<path d="M43.3721 74.21C43.8081 75.5194 43.1002 76.9343 41.791 77.3711L28.1709 81.9111C26.8703 82.3445 25.4638 81.6497 25.0176 80.3535C24.5653 79.0393 25.2715 77.6087 26.5898 77.1689L34.0322 74.6875C34.1987 74.632 34.2156 74.4027 34.0586 74.3242C33.9614 74.2756 33.9223 74.1578 33.9707 74.0605L36.0293 69.9404C36.078 69.843 36.1965 69.8031 36.2939 69.8516C36.4512 69.9301 36.6249 69.7791 36.5693 69.6123L34.0851 62.1611C33.6567 60.8762 34.3294 59.4837 35.6024 59.0207C36.925 58.5396 38.3839 59.2446 38.8289 60.5797L43.3721 74.21ZM37.4346 72.208C37.1983 71.4996 36.2238 71.4299 35.8896 72.0977L35.6123 72.6523C35.2782 73.3204 35.9183 74.0585 36.627 73.8223C36.8379 73.7519 37.0129 73.6012 37.1123 73.4023L37.3887 72.8477C37.4881 72.6489 37.5048 72.4189 37.4346 72.208Z" fill="#D00000"/>
</svg>
