<svg width="100" height="100" viewBox="0 0 100 100" fill="none" xmlns="http://www.w3.org/2000/svg">
<path d="M50 20C66.5685 20 80 33.4315 80 50C80 61.9144 73.0536 72.2044 62.9905 77.0461C61.7317 77.6518 60.2662 76.9747 59.7884 75.6621C59.321 74.3781 59.9768 72.9677 61.1981 72.3548C69.3823 68.2476 75 59.7809 75 50C75 36.1929 63.8071 25 50 25C36.1929 25 25 36.1929 25 50C25 60.5196 31.4979 69.5197 40.6985 73.2099C41.3732 73.4805 41.3919 74.493 40.7088 74.7418C40.3173 74.8844 40.1155 75.3174 40.258 75.7089L40.4541 76.2474C40.8278 77.274 39.8755 78.2673 38.8612 77.8614C27.8083 73.439 20 62.6323 20 50C20 33.4315 33.4315 20 50 20Z" fill="#009A03"/>
<path d="M43.3711 75.209C43.8073 76.5185 43.1004 77.9343 41.791 78.3711L28.1719 82.9102C26.8711 83.3437 25.4638 82.648 25.0176 81.3516C24.5655 80.0373 25.2722 78.6066 26.5908 78.167L34.0322 75.6865C34.1989 75.631 34.2148 75.4017 34.0576 75.3232C33.9603 75.2746 33.9211 75.1559 33.9697 75.0586L36.0293 70.9395C36.078 70.8421 36.1966 70.8029 36.2939 70.8516C36.4509 70.93 36.6248 70.7788 36.5693 70.6123L34.0849 63.1606C33.6566 61.8759 34.3291 60.4837 35.6018 60.0208C36.9242 59.5397 38.3829 60.2444 38.8279 61.5794L43.3711 75.209ZM37.4336 73.207C37.1974 72.4984 36.2227 72.4295 35.8887 73.0977L35.6113 73.6514C35.2777 74.3193 35.9186 75.0575 36.627 74.8213C36.8375 74.751 37.012 74.5999 37.1113 74.4014L37.3877 73.8477C37.4872 73.6487 37.5039 73.4181 37.4336 73.207Z" fill="#009A03"/>
</svg>
