<svg width="80" height="230" viewBox="0 0 80 230" fill="none" xmlns="http://www.w3.org/2000/svg">
<mask id="path-1-inside-1_49_51" fill="white">
<path d="M0 62H80V168H0V62Z"/>
</mask>
<path d="M0 62H80V168H0V62Z" fill="#D9D9D9"/>
<path d="M0 62V59H-3V62H0ZM0 168H-3V171H0V168ZM0 62V65H80V62V59H0V62ZM80 168V165H0V168V171H80V168ZM0 168H3V62H0H-3V168H0Z" fill="black" mask="url(#path-1-inside-1_49_51)"/>
<path d="M30 1.5H60C64.6944 1.5 68.5 5.30558 68.5 10V40C68.5 44.6944 64.6944 48.5 60 48.5H30C25.3056 48.5 21.5 44.6944 21.5 40V10C21.5 5.30558 25.3056 1.5 30 1.5Z" fill="#D9D9D9" stroke="black" stroke-width="3"/>
<rect x="21.5" y="1.5" width="47" height="12" fill="#D9D9D9" stroke="black" stroke-width="3"/>
<path d="M30 181.5H60C64.6944 181.5 68.5 185.306 68.5 190V220C68.5 224.694 64.6944 228.5 60 228.5H30C25.3056 228.5 21.5 224.694 21.5 220L21.5 190C21.5 185.306 25.3056 181.5 30 181.5Z" fill="#D9D9D9" stroke="black" stroke-width="3"/>
<rect x="21.5" y="216.5" width="47" height="12" fill="#D9D9D9" stroke="black" stroke-width="3"/>
</svg>
