<svg width="80" height="230" viewBox="0 0 80 230" fill="none" xmlns="http://www.w3.org/2000/svg">
<mask id="path-1-inside-1_50_2" fill="white">
<path d="M80 168H0V62H80V168Z"/>
</mask>
<path d="M80 168H0V62H80V168Z" fill="#D9D9D9"/>
<path d="M80 168V171H83V168H80ZM80 62H83V59H80V62ZM80 168V165H0V168V171H80V168ZM0 62V65H80V62V59H0V62ZM80 62H77V168H80H83V62H80Z" fill="black" mask="url(#path-1-inside-1_50_2)"/>
<path d="M50 228.5H20C15.3056 228.5 11.5 224.694 11.5 220V190C11.5 185.306 15.3056 181.5 20 181.5H50C54.6944 181.5 58.5 185.306 58.5 190V220C58.5 224.694 54.6944 228.5 50 228.5Z" fill="#D9D9D9" stroke="black" stroke-width="3"/>
<rect x="58.5" y="228.5" width="47" height="12" transform="rotate(180 58.5 228.5)" fill="#D9D9D9" stroke="black" stroke-width="3"/>
<path d="M50 48.5L20 48.5C15.3056 48.5 11.5 44.6944 11.5 40L11.5 10C11.5 5.30558 15.3056 1.5 20 1.5L50 1.5C54.6944 1.5 58.5 5.30558 58.5 10L58.5 40C58.5 44.6944 54.6944 48.5 50 48.5Z" fill="#D9D9D9" stroke="black" stroke-width="3"/>
<rect x="58.5" y="13.5" width="47" height="12" transform="rotate(-180 58.5 13.5)" fill="#D9D9D9" stroke="black" stroke-width="3"/>
</svg>
