<svg width="230" height="230" viewBox="0 0 230 230" fill="none" xmlns="http://www.w3.org/2000/svg">
<rect x="1.5" y="63.5" width="227" height="103" fill="#D9D9D9" stroke="black" stroke-width="3"/>
<path d="M30 1.5H60C64.6944 1.5 68.5 5.30558 68.5 10V40C68.5 44.6944 64.6944 48.5 60 48.5H30C25.3056 48.5 21.5 44.6944 21.5 40V10C21.5 5.30558 25.3056 1.5 30 1.5Z" fill="#D9D9D9" stroke="black" stroke-width="3"/>
<path d="M100 1.5H130C134.694 1.5 138.5 5.30558 138.5 10V40C138.5 44.6944 134.694 48.5 130 48.5H100C95.3056 48.5 91.5 44.6944 91.5 40V10C91.5 5.30558 95.3056 1.5 100 1.5Z" fill="#D9D9D9" stroke="black" stroke-width="3"/>
<path d="M170 1.5H200C204.694 1.5 208.5 5.30558 208.5 10V40C208.5 44.6944 204.694 48.5 200 48.5H170C165.306 48.5 161.5 44.6944 161.5 40V10C161.5 5.30558 165.306 1.5 170 1.5Z" fill="#D9D9D9" stroke="black" stroke-width="3"/>
<rect x="21.5" y="1.5" width="47" height="12" fill="#D9D9D9" stroke="black" stroke-width="3"/>
<rect x="91.5" y="1.5" width="47" height="12" fill="#D9D9D9" stroke="black" stroke-width="3"/>
<rect x="161.5" y="1.5" width="47" height="12" fill="#D9D9D9" stroke="black" stroke-width="3"/>
<path d="M200 228.5H170C165.306 228.5 161.5 224.694 161.5 220V190C161.5 185.306 165.306 181.5 170 181.5H200C204.694 181.5 208.5 185.306 208.5 190V220C208.5 224.694 204.694 228.5 200 228.5Z" fill="#D9D9D9" stroke="black" stroke-width="3"/>
<path d="M130 228.5H100C95.3056 228.5 91.5 224.694 91.5 220V190C91.5 185.306 95.3056 181.5 100 181.5H130C134.694 181.5 138.5 185.306 138.5 190V220C138.5 224.694 134.694 228.5 130 228.5Z" fill="#D9D9D9" stroke="black" stroke-width="3"/>
<path d="M60 228.5H30C25.3056 228.5 21.5 224.694 21.5 220V190C21.5 185.306 25.3056 181.5 30 181.5H60C64.6944 181.5 68.5 185.306 68.5 190V220C68.5 224.694 64.6944 228.5 60 228.5Z" fill="#D9D9D9" stroke="black" stroke-width="3"/>
<rect x="208.5" y="228.5" width="47" height="12" transform="rotate(180 208.5 228.5)" fill="#D9D9D9" stroke="black" stroke-width="3"/>
<rect x="138.5" y="228.5" width="47" height="12" transform="rotate(180 138.5 228.5)" fill="#D9D9D9" stroke="black" stroke-width="3"/>
<rect x="68.5" y="228.5" width="47" height="12" transform="rotate(180 68.5 228.5)" fill="#D9D9D9" stroke="black" stroke-width="3"/>
</svg>
