<svg width="70" height="230" viewBox="0 0 70 230" fill="none" xmlns="http://www.w3.org/2000/svg">
<mask id="path-1-inside-1_49_55" fill="white">
<path d="M0 62H70V168H0V62Z"/>
</mask>
<path d="M0 62H70V168H0V62Z" fill="white"/>
<path d="M0 62V65H70V62V59H0V62ZM70 168V165H0V168V171H70V168Z" fill="black" mask="url(#path-1-inside-1_49_55)"/>
<path d="M20 1.5H50C54.6944 1.5 58.5 5.30558 58.5 10V40C58.5 44.6944 54.6944 48.5 50 48.5H20C15.3056 48.5 11.5 44.6944 11.5 40V10C11.5 5.30558 15.3056 1.5 20 1.5Z" fill="white" stroke="black" stroke-width="3"/>
<rect x="11.5" y="1.5" width="47" height="12" fill="white" stroke="black" stroke-width="3"/>
<path d="M20 181.5H50C54.6944 181.5 58.5 185.306 58.5 190L58.5 220C58.5 224.694 54.6944 228.5 50 228.5H20C15.3056 228.5 11.5 224.694 11.5 220L11.5 190C11.5 185.306 15.3056 181.5 20 181.5Z" fill="white" stroke="black" stroke-width="3"/>
<rect x="11.5" y="216.5" width="47" height="12" fill="white" stroke="black" stroke-width="3"/>
</svg>
